<?xml version="1.0" encoding="UTF-8"?>
<svg id="Layer_1" data-name="Layer 1" xmlns="http://www.w3.org/2000/svg" viewBox="0 0 211.15 143.26">
  <defs>
    <style>
      .cls-1 {
        fill: #32535e;
        stroke-width: 0px;
      }
    </style>
  </defs>
  <path class="cls-1" d="M61.08,122.92c-2.14-5.61-4.28-11.84-6.43-18.92-9.07,1.35-18.14,1.03-27.22-1.84-2.29,6.76-4.57,12.71-6.86,18.31-.12.4-.24.81-.36,1.21-.05.05-.41.92-1.08,2.57-1.01,2.47-1.52,5.16-1.52,7.92,0,4.79,2.02,8.15,6.06,9.79v1.3c-.82,0-2.24-.11-4.26-.39-2.84-.4-5.39-.69-7.65-.76-2.07-.06-4.62.06-7.65.56-2.07.36-3.44.59-4.12.59v-2.39c5.29-4.82,10.11-11.68,14.44-22.3,7.99-19.27,15.98-43.27,23.97-82.77-1.83-9.5-4.34-17.41-7.54-23.04-3.2-5.66-6.94-8.77-11.23-9.38,0-1.11,0-2.24,0-3.36h2.53c2.26,0,5.37.39,9.31,1.22,4.14.84,6.83,1.27,8.09,1.27,6.08,36.69,12.15,66.45,18.23,88.45,6.08,22.35,12.15,36.95,18.23,51.33-4.67.19-10.28.57-16.82.98v-1.14c3.66-.6,5.49-2.53,5.49-6.19,0-2.72-1.2-6.82-3.61-13ZM30.25,93.6c7.27,1.95,14.53,2.26,21.8,1.41-3.49-12.7-6.98-27.91-10.47-45.55-3.78,17.37-7.56,32.03-11.33,44.14ZM81.79,142.17c-6.08-15.9-12.15-30.66-18.23-52.56-6.08-21.59-12.15-50.32-18.23-87.1,2.36,0,4.72,0,7.08-.02.96,7.14,2.31,15.86,4.04,25.53,1.92,10.37,3.01,15.85,3.25,17.67.24.99.46,2.15.65,3.46,5.66,26.46,11.31,45.64,16.97,62.05,5.92,16.77,12.22,25.63,18.91,29.98v2.08c-6.55-.91-11.36-1.14-14.44-1.09Z"/>
  <path class="cls-1" d="M175.99,95.17c-2.14-10.93-4.28-21.08-6.42-30.29-9.07-.46-18.14,1.18-27.22,4.02-2.29,9.65-4.57,19.94-6.86,30.52-.12.73-.24,1.46-.36,2.19-.05.12-.41,1.78-1.08,4.99-1.01,4.82-1.52,9.66-1.52,14.62,0,8.56,2.02,14.73,6.06,18.65v3.39c-.82,0-2.24-.32-4.26-.91-2.84-.83-5.39-1.18-7.65-1.13-2.07.04-4.62.49-7.65,1.26-2.07.54-3.44.79-4.12.79v-2.7c5.29-5.63,10.11-18.9,14.44-38.55,7.99-36.29,15.98-69.62,23.97-88.58-1.83-4.18-4.34-6.9-7.54-8.83-3.2-1.9-6.94-2.97-11.23-3.1V0h2.53c2.26,0,5.37.16,9.31.41,4.14.24,6.83.34,8.09.33,6.08,10.75,12.15,26.3,18.23,50.57,6.08,23.78,12.15,56.29,18.23,89.7-4.67.14-10.28.86-16.82,2.26,0-1.25,0-2.49,0-3.72,3.66-1.75,5.49-7.25,5.49-16.02,0-6.46-1.2-16.22-3.61-28.35ZM145.16,57.54c7.27-2.13,14.54-3.41,21.8-3.36-3.49-13.86-6.98-25.11-10.47-34.28-3.78,9.99-7.56,22.75-11.33,37.64ZM196.71,141.14c-6.08-31.41-12.15-64.46-18.23-88.89-6.08-24.97-12.15-41.32-18.23-51.55,2.36-.01,4.72-.02,7.07-.01.96,2.01,2.31,4.78,4.04,8.9,1.92,4.47,3.01,7.79,3.25,8.76.24.58.46,1.25.65,2.04,5.65,15.92,11.31,39.75,16.96,67.42,5.92,29.23,12.22,48.43,18.92,53.07v2.39c-6.55-1.1-11.36-2.06-14.44-2.12Z"/>
</svg>